<mxfile host="app.diagrams.net" modified="2023-12-11T19:53:40.210Z" agent="Mozilla/5.0 (Windows NT 10.0; Win64; x64) AppleWebKit/537.36 (KHTML, like Gecko) Chrome/120.0.0.0 Safari/537.36" etag="lTmajy4W1nldbIol4XAt" version="22.1.7" type="github">
  <diagram name="Seite-1" id="osP9VikOhbHR7fOa7SQz">
    <mxGraphModel dx="2261" dy="1951" grid="1" gridSize="10" guides="1" tooltips="1" connect="1" arrows="1" fold="1" page="1" pageScale="1" pageWidth="827" pageHeight="1169" background="none" math="0" shadow="0">
      <root>
        <mxCell id="0" />
        <mxCell id="1" parent="0" />
        <mxCell id="cVMqvwIyuu8IxggJA45d-3" value="" style="rounded=0;whiteSpace=wrap;html=1;labelBackgroundColor=none;fillColor=#EDEDED;gradientColor=#CCCCCC;" vertex="1" parent="1">
          <mxGeometry x="-110" y="-50" width="930" height="810" as="geometry" />
        </mxCell>
        <mxCell id="xuz98YopQS9WIF7cPWxn-35" style="edgeStyle=orthogonalEdgeStyle;rounded=0;orthogonalLoop=1;jettySize=auto;html=1;entryX=0.5;entryY=0;entryDx=0;entryDy=0;" parent="1" source="xuz98YopQS9WIF7cPWxn-22" edge="1" target="cVMqvwIyuu8IxggJA45d-18">
          <mxGeometry relative="1" as="geometry">
            <mxPoint x="331.25" y="600" as="targetPoint" />
          </mxGeometry>
        </mxCell>
        <mxCell id="xuz98YopQS9WIF7cPWxn-22" value="" style="rounded=1;whiteSpace=wrap;html=1;fillColor=#dae8fc;strokeColor=#6c8ebf;" parent="1" vertex="1">
          <mxGeometry x="30" y="260" width="600" height="260" as="geometry" />
        </mxCell>
        <mxCell id="HuNmMZiUPK55yXc_vqOk-4" value="&lt;b&gt;Primus&lt;/b&gt;" style="rounded=1;whiteSpace=wrap;html=1;fillColor=#CCE5FF;" parent="1" vertex="1">
          <mxGeometry x="-10" y="50" width="170" height="60" as="geometry" />
        </mxCell>
        <mxCell id="xuz98YopQS9WIF7cPWxn-30" style="edgeStyle=orthogonalEdgeStyle;rounded=0;orthogonalLoop=1;jettySize=auto;html=1;entryX=0.5;entryY=0;entryDx=0;entryDy=0;" parent="1" source="HuNmMZiUPK55yXc_vqOk-5" target="xuz98YopQS9WIF7cPWxn-26" edge="1">
          <mxGeometry relative="1" as="geometry" />
        </mxCell>
        <mxCell id="HuNmMZiUPK55yXc_vqOk-5" value="" style="image;aspect=fixed;html=1;points=[];align=center;fontSize=12;image=img/lib/azure2/databases/Azure_Database_PostgreSQL_Server.svg;" parent="1" vertex="1">
          <mxGeometry x="300" y="276" width="66.5" height="88.66" as="geometry" />
        </mxCell>
        <mxCell id="HuNmMZiUPK55yXc_vqOk-6" value="&lt;b&gt;PDS&lt;/b&gt;" style="rounded=1;whiteSpace=wrap;html=1;fillColor=#CCE5FF;" parent="1" vertex="1">
          <mxGeometry x="244" y="660" width="170" height="60" as="geometry" />
        </mxCell>
        <mxCell id="HuNmMZiUPK55yXc_vqOk-25" value="" style="group;horizontal=0;labelBorderColor=default;html=1;fontStyle=0;perimeterSpacing=5;strokeWidth=10;rounded=0;glass=0;fillColor=none;gradientColor=none;shadow=0;" parent="1" vertex="1" connectable="0">
          <mxGeometry x="25" y="160" width="100" height="80" as="geometry" />
        </mxCell>
        <mxCell id="HuNmMZiUPK55yXc_vqOk-10" value="" style="ellipse;whiteSpace=wrap;html=1;aspect=fixed;fillColor=#FF6666;strokeColor=default;fontSize=54;gradientColor=#EA6B66;" parent="HuNmMZiUPK55yXc_vqOk-25" vertex="1">
          <mxGeometry x="10" width="80" height="80" as="geometry" />
        </mxCell>
        <mxCell id="HuNmMZiUPK55yXc_vqOk-24" value="&lt;font face=&quot;Helvetica&quot; style=&quot;font-size: 54px;&quot;&gt;t&lt;/font&gt;" style="text;html=1;fontSize=48;fontStyle=1;verticalAlign=middle;align=center;strokeWidth=1;perimeterSpacing=0;rounded=0;horizontal=1;fontColor=#FFFFFF;fontFamily=Tahoma;whiteSpace=wrap;" parent="HuNmMZiUPK55yXc_vqOk-25" vertex="1">
          <mxGeometry y="20" width="100" height="40" as="geometry" />
        </mxCell>
        <mxCell id="xuz98YopQS9WIF7cPWxn-2" value="Talend-Job:&lt;br&gt;IBM MQ Queue Input" style="text;html=1;strokeColor=none;fillColor=none;align=center;verticalAlign=middle;whiteSpace=wrap;rounded=0;" parent="1" vertex="1">
          <mxGeometry x="100" y="130" width="120" height="30" as="geometry" />
        </mxCell>
        <mxCell id="xuz98YopQS9WIF7cPWxn-3" style="edgeStyle=orthogonalEdgeStyle;rounded=0;orthogonalLoop=1;jettySize=auto;html=1;exitX=1;exitY=0.5;exitDx=0;exitDy=0;" parent="1" source="HuNmMZiUPK55yXc_vqOk-24" target="xuz98YopQS9WIF7cPWxn-22" edge="1">
          <mxGeometry relative="1" as="geometry" />
        </mxCell>
        <mxCell id="xuz98YopQS9WIF7cPWxn-11" style="edgeStyle=orthogonalEdgeStyle;rounded=0;orthogonalLoop=1;jettySize=auto;html=1;exitX=0.5;exitY=1;exitDx=0;exitDy=0;entryX=0.5;entryY=0;entryDx=0;entryDy=0;" parent="1" source="xuz98YopQS9WIF7cPWxn-4" target="xuz98YopQS9WIF7cPWxn-6" edge="1">
          <mxGeometry relative="1" as="geometry" />
        </mxCell>
        <mxCell id="xuz98YopQS9WIF7cPWxn-4" value="&lt;b&gt;Rest Schnittstelle&lt;br&gt;&lt;/b&gt;" style="rounded=1;whiteSpace=wrap;html=1;fillColor=#CCE5FF;" parent="1" vertex="1">
          <mxGeometry x="505" y="50" width="170" height="60" as="geometry" />
        </mxCell>
        <mxCell id="xuz98YopQS9WIF7cPWxn-5" value="" style="group;horizontal=0;labelBorderColor=default;html=1;fontStyle=0;perimeterSpacing=5;strokeWidth=10;rounded=0;glass=0;fillColor=none;gradientColor=none;shadow=0;" parent="1" vertex="1" connectable="0">
          <mxGeometry x="540" y="160" width="100" height="80" as="geometry" />
        </mxCell>
        <mxCell id="xuz98YopQS9WIF7cPWxn-6" value="" style="ellipse;whiteSpace=wrap;html=1;aspect=fixed;fillColor=#FF6666;strokeColor=default;fontSize=54;gradientColor=#EA6B66;" parent="xuz98YopQS9WIF7cPWxn-5" vertex="1">
          <mxGeometry x="10" width="80" height="80" as="geometry" />
        </mxCell>
        <mxCell id="xuz98YopQS9WIF7cPWxn-7" value="&lt;font face=&quot;Helvetica&quot; style=&quot;font-size: 54px;&quot;&gt;t&lt;/font&gt;" style="text;html=1;fontSize=48;fontStyle=1;verticalAlign=middle;align=center;strokeWidth=1;perimeterSpacing=0;rounded=0;horizontal=1;fontColor=#FFFFFF;fontFamily=Tahoma;whiteSpace=wrap;" parent="xuz98YopQS9WIF7cPWxn-5" vertex="1">
          <mxGeometry y="20" width="100" height="40" as="geometry" />
        </mxCell>
        <mxCell id="xuz98YopQS9WIF7cPWxn-10" style="edgeStyle=orthogonalEdgeStyle;rounded=0;orthogonalLoop=1;jettySize=auto;html=1;entryX=0.5;entryY=0;entryDx=0;entryDy=0;entryPerimeter=0;" parent="1" source="HuNmMZiUPK55yXc_vqOk-4" target="HuNmMZiUPK55yXc_vqOk-10" edge="1">
          <mxGeometry relative="1" as="geometry" />
        </mxCell>
        <mxCell id="xuz98YopQS9WIF7cPWxn-12" value="Talend-Service:&lt;br&gt;Rest-Input" style="text;html=1;strokeColor=none;fillColor=none;align=center;verticalAlign=middle;whiteSpace=wrap;rounded=0;" parent="1" vertex="1">
          <mxGeometry x="470" y="120" width="120" height="30" as="geometry" />
        </mxCell>
        <mxCell id="xuz98YopQS9WIF7cPWxn-14" value="" style="image;aspect=fixed;html=1;points=[];align=center;fontSize=12;image=img/lib/azure2/integration/API_Management_Services.svg;" parent="1" vertex="1">
          <mxGeometry x="640" y="170" width="65" height="60" as="geometry" />
        </mxCell>
        <mxCell id="xuz98YopQS9WIF7cPWxn-15" value="Managed Azure-DB Postgres SQL Server&lt;br&gt;Staging Layer" style="text;html=1;strokeColor=none;fillColor=none;align=center;verticalAlign=middle;whiteSpace=wrap;rounded=0;" parent="1" vertex="1">
          <mxGeometry x="385" y="305.33" width="120" height="30" as="geometry" />
        </mxCell>
        <mxCell id="xuz98YopQS9WIF7cPWxn-19" value="Azure API&lt;br&gt;Management" style="text;html=1;strokeColor=none;fillColor=none;align=center;verticalAlign=middle;whiteSpace=wrap;rounded=0;" parent="1" vertex="1">
          <mxGeometry x="620" y="130" width="120" height="30" as="geometry" />
        </mxCell>
        <mxCell id="xuz98YopQS9WIF7cPWxn-24" style="edgeStyle=orthogonalEdgeStyle;rounded=0;orthogonalLoop=1;jettySize=auto;html=1;exitX=0;exitY=0.5;exitDx=0;exitDy=0;entryX=0.5;entryY=0;entryDx=0;entryDy=0;" parent="1" source="xuz98YopQS9WIF7cPWxn-7" target="xuz98YopQS9WIF7cPWxn-22" edge="1">
          <mxGeometry relative="1" as="geometry" />
        </mxCell>
        <mxCell id="xuz98YopQS9WIF7cPWxn-25" value="" style="group;horizontal=0;labelBorderColor=default;html=1;fontStyle=0;perimeterSpacing=5;strokeWidth=10;rounded=0;glass=0;fillColor=none;gradientColor=none;shadow=0;" parent="1" vertex="1" connectable="0">
          <mxGeometry x="110" y="347" width="100" height="80" as="geometry" />
        </mxCell>
        <mxCell id="xuz98YopQS9WIF7cPWxn-26" value="" style="ellipse;whiteSpace=wrap;html=1;aspect=fixed;fillColor=#FF6666;strokeColor=default;fontSize=54;gradientColor=#EA6B66;" parent="xuz98YopQS9WIF7cPWxn-25" vertex="1">
          <mxGeometry x="10" width="80" height="80" as="geometry" />
        </mxCell>
        <mxCell id="xuz98YopQS9WIF7cPWxn-27" value="&lt;font face=&quot;Helvetica&quot; style=&quot;font-size: 54px;&quot;&gt;t&lt;/font&gt;" style="text;html=1;fontSize=48;fontStyle=1;verticalAlign=middle;align=center;strokeWidth=1;perimeterSpacing=0;rounded=0;horizontal=1;fontColor=#FFFFFF;fontFamily=Tahoma;whiteSpace=wrap;" parent="xuz98YopQS9WIF7cPWxn-25" vertex="1">
          <mxGeometry y="20" width="100" height="40" as="geometry" />
        </mxCell>
        <mxCell id="xuz98YopQS9WIF7cPWxn-29" value="" style="image;aspect=fixed;html=1;points=[];align=center;fontSize=12;image=img/lib/azure2/databases/Azure_Database_PostgreSQL_Server.svg;" parent="1" vertex="1">
          <mxGeometry x="300" y="410" width="66.5" height="88.66" as="geometry" />
        </mxCell>
        <mxCell id="xuz98YopQS9WIF7cPWxn-33" style="edgeStyle=orthogonalEdgeStyle;rounded=0;orthogonalLoop=1;jettySize=auto;html=1;entryX=-0.015;entryY=0.474;entryDx=0;entryDy=0;entryPerimeter=0;exitX=0.5;exitY=1;exitDx=0;exitDy=0;" parent="1" source="xuz98YopQS9WIF7cPWxn-26" target="xuz98YopQS9WIF7cPWxn-29" edge="1">
          <mxGeometry relative="1" as="geometry" />
        </mxCell>
        <mxCell id="xuz98YopQS9WIF7cPWxn-34" value="" style="image;aspect=fixed;html=1;points=[];align=center;fontSize=12;image=img/lib/azure2/integration/API_Management_Services.svg;" parent="1" vertex="1">
          <mxGeometry x="135" y="600" width="65" height="60" as="geometry" />
        </mxCell>
        <mxCell id="xuz98YopQS9WIF7cPWxn-36" value="Managed Azure-DB Postgres SQL Server&lt;br&gt;Processing Layer" style="text;html=1;strokeColor=none;fillColor=none;align=center;verticalAlign=middle;whiteSpace=wrap;rounded=0;" parent="1" vertex="1">
          <mxGeometry x="385" y="439.33" width="120" height="30" as="geometry" />
        </mxCell>
        <mxCell id="cVMqvwIyuu8IxggJA45d-1" value="Datenaufbereitung&lt;br&gt;Business-Logik" style="text;html=1;strokeColor=none;fillColor=none;align=center;verticalAlign=middle;whiteSpace=wrap;rounded=0;" vertex="1" parent="1">
          <mxGeometry x="200" y="371.99999999999994" width="120" height="30" as="geometry" />
        </mxCell>
        <mxCell id="cVMqvwIyuu8IxggJA45d-8" value="MDS" style="text;html=1;strokeColor=none;fillColor=none;align=center;verticalAlign=middle;whiteSpace=wrap;rounded=0;fontStyle=1;fontSize=18;" vertex="1" parent="1">
          <mxGeometry x="-100" y="-40" width="60" height="30" as="geometry" />
        </mxCell>
        <mxCell id="cVMqvwIyuu8IxggJA45d-9" value="Azure API&lt;br&gt;Management&lt;br&gt;Schnittstelle" style="text;html=1;strokeColor=none;fillColor=none;align=center;verticalAlign=middle;whiteSpace=wrap;rounded=0;" vertex="1" parent="1">
          <mxGeometry x="5" y="615" width="120" height="30" as="geometry" />
        </mxCell>
        <mxCell id="cVMqvwIyuu8IxggJA45d-10" value="" style="image;aspect=fixed;html=1;points=[];align=center;fontSize=12;image=img/lib/azure2/devops/Azure_DevOps.svg;" vertex="1" parent="1">
          <mxGeometry x="41.25" y="366.25" width="47.5" height="47.5" as="geometry" />
        </mxCell>
        <mxCell id="cVMqvwIyuu8IxggJA45d-11" value="" style="image;aspect=fixed;html=1;points=[];align=center;fontSize=12;image=img/lib/azure2/general/Subscriptions.svg;" vertex="1" parent="1">
          <mxGeometry x="50.05" y="305.33" width="27.89" height="45" as="geometry" />
        </mxCell>
        <mxCell id="cVMqvwIyuu8IxggJA45d-14" value="Projektablage im&lt;br&gt;DevOps&lt;br&gt;&lt;br&gt;Jobausführung&amp;nbsp;&lt;br&gt;über &lt;br&gt;Azure Remote Engine" style="text;html=1;strokeColor=none;fillColor=none;align=center;verticalAlign=middle;whiteSpace=wrap;rounded=0;" vertex="1" parent="1">
          <mxGeometry x="-100" y="364.65999999999997" width="120" height="30" as="geometry" />
        </mxCell>
        <mxCell id="cVMqvwIyuu8IxggJA45d-15" value="" style="outlineConnect=0;dashed=0;verticalLabelPosition=bottom;verticalAlign=top;align=center;html=1;shape=mxgraph.aws3.emr_engine;fillColor=#FF6666;gradientColor=none;" vertex="1" parent="1">
          <mxGeometry x="39" y="434.33" width="52" height="40" as="geometry" />
        </mxCell>
        <mxCell id="cVMqvwIyuu8IxggJA45d-17" value="" style="group;horizontal=0;labelBorderColor=default;html=1;fontStyle=0;perimeterSpacing=5;strokeWidth=10;rounded=0;glass=0;fillColor=none;gradientColor=none;shadow=0;" vertex="1" connectable="0" parent="1">
          <mxGeometry x="280" y="545" width="100" height="80" as="geometry" />
        </mxCell>
        <mxCell id="cVMqvwIyuu8IxggJA45d-18" value="" style="ellipse;whiteSpace=wrap;html=1;aspect=fixed;fillColor=#FF6666;strokeColor=default;fontSize=54;gradientColor=#EA6B66;" vertex="1" parent="cVMqvwIyuu8IxggJA45d-17">
          <mxGeometry x="10" width="80" height="80" as="geometry" />
        </mxCell>
        <mxCell id="cVMqvwIyuu8IxggJA45d-19" value="&lt;font face=&quot;Helvetica&quot; style=&quot;font-size: 54px;&quot;&gt;t&lt;/font&gt;" style="text;html=1;fontSize=48;fontStyle=1;verticalAlign=middle;align=center;strokeWidth=1;perimeterSpacing=0;rounded=0;horizontal=1;fontColor=#FFFFFF;fontFamily=Tahoma;whiteSpace=wrap;" vertex="1" parent="cVMqvwIyuu8IxggJA45d-17">
          <mxGeometry y="20" width="100" height="40" as="geometry" />
        </mxCell>
        <mxCell id="cVMqvwIyuu8IxggJA45d-22" style="edgeStyle=orthogonalEdgeStyle;rounded=0;orthogonalLoop=1;jettySize=auto;html=1;exitX=0.5;exitY=1;exitDx=0;exitDy=0;entryX=0.5;entryY=0;entryDx=0;entryDy=0;" edge="1" parent="1" source="cVMqvwIyuu8IxggJA45d-18" target="HuNmMZiUPK55yXc_vqOk-6">
          <mxGeometry relative="1" as="geometry" />
        </mxCell>
        <mxCell id="cVMqvwIyuu8IxggJA45d-23" style="edgeStyle=orthogonalEdgeStyle;rounded=0;orthogonalLoop=1;jettySize=auto;html=1;entryX=0.508;entryY=-0.05;entryDx=0;entryDy=0;exitX=0.313;exitY=1.015;exitDx=0;exitDy=0;exitPerimeter=0;entryPerimeter=0;" edge="1" parent="1" source="xuz98YopQS9WIF7cPWxn-22" target="xuz98YopQS9WIF7cPWxn-34">
          <mxGeometry relative="1" as="geometry">
            <mxPoint x="340" y="555" as="targetPoint" />
            <mxPoint x="340" y="530" as="sourcePoint" />
          </mxGeometry>
        </mxCell>
        <mxCell id="cVMqvwIyuu8IxggJA45d-24" value="Talend&lt;br&gt;Weitergabe der Daten an PDS" style="text;html=1;strokeColor=none;fillColor=none;align=center;verticalAlign=middle;whiteSpace=wrap;rounded=0;" vertex="1" parent="1">
          <mxGeometry x="385" y="570" width="120" height="30" as="geometry" />
        </mxCell>
      </root>
    </mxGraphModel>
  </diagram>
</mxfile>
